# xmcd
#
# Track frame offsets:
#	150
#	26154
#	44369
#	64896
#	89058
#	107008
#	137558
#	169496
#	200994
#	232086
#
# Disc length: 3325 seconds
#
# Revision: 1
# Processed by: cddbd v1.5.2PL0 Copyright (c) Steve Scherf et al.
# Submitted via: audiograbber 1.83.01
#
DISCID=9b0cfb0a
DTITLE=Matt Woosey - Wildst Dreams
DYEAR=2014
DGENRE=
TTITLE0=Exactly As We Please
TTITLE1=Wildest Dreams
TTITLE2=Some Old Blues
TTITLE3=I´ve Seen The Bottom
TTITLE4=Nowhere Is Home
TTITLE5=Don´t Tell Nobody
TTITLE6=Love Is The Strangest Thing
TTITLE7=Hook, Line Ans Sinker
TTITLE8=Let It Flow
TTITLE9=Exactly As We Please
EXTD=
EXTT0=
EXTT1=
EXTT2=
EXTT3=
EXTT4=
EXTT5=
EXTT6=
EXTT7=
EXTT8=
EXTT9=
PLAYORDER=
